<?xml version="1.0" encoding="utf-8"?>
<!-- Generator: Adobe Illustrator 15.0.0, SVG Export Plug-In . SVG Version: 6.00 Build 0)  -->
<!DOCTYPE svg PUBLIC "-//W3C//DTD SVG 1.1//EN" "http://www.w3.org/Graphics/SVG/1.1/DTD/svg11.dtd">
<svg version="1.1" id="Calque_1" xmlns="http://www.w3.org/2000/svg" xmlns:xlink="http://www.w3.org/1999/xlink" x="0px" y="0px"
	 width="382.702px" height="120.936px" viewBox="0 0 382.702 120.936" style="enable-background:new 0 0 382.702 120.936;"
	 xml:space="preserve">
<g>
	<linearGradient id="SVGID_1_" gradientUnits="userSpaceOnUse" x1="15.2056" y1="62.0908" x2="113.3555" y2="62.0908">
		<stop  offset="0" style="stop-color:#E3C030"/>
		<stop  offset="0.5758" style="stop-color:#FFCE05"/>
		<stop  offset="1" style="stop-color:#F7F3BD"/>
	</linearGradient>
	<path style="fill:url(#SVGID_1_);" d="M113.355,51.072l-33.91-4.928L64.281,15.417L49.116,46.145l-33.91,4.928L39.744,74.99
		l-5.793,33.773l30.33-15.946l30.33,15.946L88.819,74.99L113.355,51.072z M93.201,106.822l-28.92-15.204L35.36,106.822l5.524-32.203
		L17.487,51.813l32.333-4.698l14.46-29.3l14.461,29.3l32.332,4.698L87.678,74.619L93.201,106.822z"/>
	<linearGradient id="SVGID_2_" gradientUnits="userSpaceOnUse" x1="17.4873" y1="62.3184" x2="111.0742" y2="62.3184">
		<stop  offset="0" style="stop-color:#E3C030"/>
		<stop  offset="0.5758" style="stop-color:#FFCE05"/>
		<stop  offset="1" style="stop-color:#F7F3BD"/>
	</linearGradient>
	<polygon style="fill:url(#SVGID_2_);" points="111.074,51.813 78.742,47.115 64.281,17.815 49.821,47.115 17.487,51.813 
		40.884,74.619 35.36,106.822 64.281,91.618 93.201,106.822 87.678,74.619 	"/>
	<linearGradient id="SVGID_3_" gradientUnits="userSpaceOnUse" x1="15.2056" y1="62.0908" x2="113.3555" y2="62.0908">
		<stop  offset="0" style="stop-color:#E3C030"/>
		<stop  offset="0.5758" style="stop-color:#FFCE05"/>
		<stop  offset="1" style="stop-color:#F7F3BD"/>
	</linearGradient>
	<polygon style="fill:url(#SVGID_3_);" points="39.744,74.99 33.951,108.764 64.281,92.817 94.61,108.764 88.819,74.99 
		113.355,51.072 79.445,46.145 64.281,15.417 49.116,46.145 15.206,51.072 	"/>
	<radialGradient id="SVGID_4_" cx="64.2808" cy="62.0908" r="47.8888" gradientUnits="userSpaceOnUse">
		<stop  offset="0" style="stop-color:#F7F3BD"/>
		<stop  offset="0.7239" style="stop-color:#FFCE05"/>
		<stop  offset="1" style="stop-color:#F4D036"/>
	</radialGradient>
	<polygon style="fill:url(#SVGID_4_);" points="64.281,15.577 64.281,15.417 49.116,46.145 15.206,51.072 39.744,74.99 
		33.951,108.764 64.281,92.817 94.61,108.764 88.819,74.99 113.355,51.072 79.445,46.145 64.281,15.417 	"/>
	<linearGradient id="SVGID_5_" gradientUnits="userSpaceOnUse" x1="64.2808" y1="23.9287" x2="83.4707" y2="23.9287">
		<stop  offset="0" style="stop-color:#D39E2C"/>
		<stop  offset="0.2249" style="stop-color:#DCA72F"/>
		<stop  offset="0.6012" style="stop-color:#E6B331"/>
	</linearGradient>
	<polygon style="fill:url(#SVGID_5_);" points="79.445,46.145 83.471,40.596 64.281,1.713 64.281,15.417 	"/>
	<linearGradient id="SVGID_6_" gradientUnits="userSpaceOnUse" x1="45.0889" y1="23.9287" x2="64.2808" y2="23.9287">
		<stop  offset="0" style="stop-color:#E3C030"/>
		<stop  offset="0.5758" style="stop-color:#FFCE05"/>
		<stop  offset="1" style="stop-color:#F7F3BD"/>
	</linearGradient>
	<polygon style="fill:url(#SVGID_6_);" points="64.281,15.417 64.281,1.713 45.089,40.601 49.116,46.145 	"/>
	<linearGradient id="SVGID_7_" gradientUnits="userSpaceOnUse" x1="64.2671" y1="106.333" x2="102.666" y2="106.333">
		<stop  offset="0" style="stop-color:#D39E2C"/>
		<stop  offset="0.2249" style="stop-color:#DCA72F"/>
		<stop  offset="0.6012" style="stop-color:#E6B331"/>
	</linearGradient>
	<polygon style="fill:url(#SVGID_7_);" points="64.281,92.817 64.267,99.677 64.281,99.669 102.666,119.85 94.585,108.748 	"/>
	<linearGradient id="SVGID_8_" gradientUnits="userSpaceOnUse" x1="2.1729" y1="61.9805" x2="39.7437" y2="61.9805">
		<stop  offset="0" style="stop-color:#E3C030"/>
		<stop  offset="0.5758" style="stop-color:#FFCE05"/>
		<stop  offset="1" style="stop-color:#F7F3BD"/>
	</linearGradient>
	<polygon style="fill:url(#SVGID_8_);" points="15.248,51.113 2.173,46.837 33.227,77.108 33.223,77.124 39.744,74.99 	"/>
	<linearGradient id="SVGID_9_" gradientUnits="userSpaceOnUse" x1="2.1729" y1="45.8569" x2="49.1157" y2="45.8569">
		<stop  offset="0" style="stop-color:#D39E2C"/>
		<stop  offset="0.2249" style="stop-color:#DCA72F"/>
		<stop  offset="0.6012" style="stop-color:#E6B331"/>
	</linearGradient>
	<polygon style="fill:url(#SVGID_9_);" points="15.206,51.072 49.116,46.145 45.089,40.601 2.173,46.837 15.248,51.113 	"/>
	<linearGradient id="SVGID_10_" gradientUnits="userSpaceOnUse" x1="25.895" y1="97.4199" x2="39.7437" y2="97.4199">
		<stop  offset="0" style="stop-color:#D39E2C"/>
		<stop  offset="0.2249" style="stop-color:#DCA72F"/>
		<stop  offset="0.6012" style="stop-color:#E6B331"/>
	</linearGradient>
	<polygon style="fill:url(#SVGID_10_);" points="39.744,74.99 33.223,77.124 25.895,119.85 33.961,108.703 	"/>
	<linearGradient id="SVGID_11_" gradientUnits="userSpaceOnUse" x1="25.895" y1="106.333" x2="64.2808" y2="106.333">
		<stop  offset="0" style="stop-color:#E3C030"/>
		<stop  offset="0.5758" style="stop-color:#FFCE05"/>
		<stop  offset="1" style="stop-color:#F7F3BD"/>
	</linearGradient>
	<polygon style="fill:url(#SVGID_11_);" points="33.951,108.764 33.961,108.703 25.895,119.85 64.267,99.677 64.281,92.817 	"/>
	<linearGradient id="SVGID_12_" gradientUnits="userSpaceOnUse" x1="88.8193" y1="97.4199" x2="102.666" y2="97.4199">
		<stop  offset="0" style="stop-color:#E3C030"/>
		<stop  offset="0.5758" style="stop-color:#FFCE05"/>
		<stop  offset="1" style="stop-color:#F7F3BD"/>
	</linearGradient>
	<polygon style="fill:url(#SVGID_12_);" points="88.819,74.99 94.61,108.764 94.585,108.748 102.666,119.85 95.335,77.108 	"/>
	<linearGradient id="SVGID_13_" gradientUnits="userSpaceOnUse" x1="88.8193" y1="61.9727" x2="126.3906" y2="61.9727">
		<stop  offset="0" style="stop-color:#D39E2C"/>
		<stop  offset="0.2249" style="stop-color:#DCA72F"/>
		<stop  offset="0.6012" style="stop-color:#E6B331"/>
	</linearGradient>
	<polygon style="fill:url(#SVGID_13_);" points="126.391,46.837 113.354,51.072 113.355,51.072 88.819,74.99 95.335,77.108 	"/>
	<linearGradient id="SVGID_14_" gradientUnits="userSpaceOnUse" x1="79.4453" y1="45.834" x2="126.3906" y2="45.834">
		<stop  offset="0" style="stop-color:#E3C030"/>
		<stop  offset="0.5758" style="stop-color:#FFCE05"/>
		<stop  offset="1" style="stop-color:#F7F3BD"/>
	</linearGradient>
	<polygon style="fill:url(#SVGID_14_);" points="83.473,40.601 83.471,40.596 79.445,46.145 113.354,51.072 126.391,46.837 	"/>
</g>
<g>
	<linearGradient id="SVGID_15_" gradientUnits="userSpaceOnUse" x1="142.356" y1="62.0908" x2="240.5054" y2="62.0908">
		<stop  offset="0" style="stop-color:#E3C030"/>
		<stop  offset="0.5758" style="stop-color:#FFCE05"/>
		<stop  offset="1" style="stop-color:#F7F3BD"/>
	</linearGradient>
	<path style="fill:url(#SVGID_15_);" d="M240.505,51.072l-33.91-4.928l-15.164-30.727l-15.165,30.727l-33.91,4.928l24.538,23.918
		l-5.793,33.773l30.33-15.946l30.33,15.946L215.97,74.99L240.505,51.072z M220.351,106.822l-28.92-15.204l-28.921,15.204
		l5.524-32.203l-23.396-22.806l32.333-4.698l14.46-29.3l14.461,29.3l32.332,4.698l-23.396,22.806L220.351,106.822z"/>
	<linearGradient id="SVGID_16_" gradientUnits="userSpaceOnUse" x1="144.6382" y1="62.3184" x2="238.2241" y2="62.3184">
		<stop  offset="0" style="stop-color:#E3C030"/>
		<stop  offset="0.5758" style="stop-color:#FFCE05"/>
		<stop  offset="1" style="stop-color:#F7F3BD"/>
	</linearGradient>
	<polygon style="fill:url(#SVGID_16_);" points="238.224,51.813 205.892,47.115 191.431,17.815 176.971,47.115 144.638,51.813 
		168.035,74.619 162.51,106.822 191.431,91.618 220.351,106.822 214.828,74.619 	"/>
	<linearGradient id="SVGID_17_" gradientUnits="userSpaceOnUse" x1="142.356" y1="62.0908" x2="240.5054" y2="62.0908">
		<stop  offset="0" style="stop-color:#E3C030"/>
		<stop  offset="0.5758" style="stop-color:#FFCE05"/>
		<stop  offset="1" style="stop-color:#F7F3BD"/>
	</linearGradient>
	<polygon style="fill:url(#SVGID_17_);" points="166.894,74.99 161.101,108.764 191.431,92.817 221.761,108.764 215.97,74.99 
		240.505,51.072 206.595,46.145 191.431,15.417 176.266,46.145 142.356,51.072 	"/>
	<radialGradient id="SVGID_18_" cx="191.4307" cy="62.0908" r="47.8888" gradientUnits="userSpaceOnUse">
		<stop  offset="0" style="stop-color:#F7F3BD"/>
		<stop  offset="0.7239" style="stop-color:#FFCE05"/>
		<stop  offset="1" style="stop-color:#F4D036"/>
	</radialGradient>
	<polygon style="fill:url(#SVGID_18_);" points="191.431,15.577 191.431,15.417 176.266,46.145 142.356,51.072 166.894,74.99 
		161.101,108.764 191.431,92.817 221.761,108.764 215.97,74.99 240.505,51.072 206.595,46.145 191.431,15.417 	"/>
	<linearGradient id="SVGID_19_" gradientUnits="userSpaceOnUse" x1="191.4312" y1="23.9287" x2="210.6206" y2="23.9287">
		<stop  offset="0" style="stop-color:#D39E2C"/>
		<stop  offset="0.2249" style="stop-color:#DCA72F"/>
		<stop  offset="0.6012" style="stop-color:#E6B331"/>
	</linearGradient>
	<polygon style="fill:url(#SVGID_19_);" points="206.595,46.145 210.621,40.596 191.431,1.713 191.431,15.417 	"/>
	<linearGradient id="SVGID_20_" gradientUnits="userSpaceOnUse" x1="172.2397" y1="23.9287" x2="191.4312" y2="23.9287">
		<stop  offset="0" style="stop-color:#E3C030"/>
		<stop  offset="0.5758" style="stop-color:#FFCE05"/>
		<stop  offset="1" style="stop-color:#F7F3BD"/>
	</linearGradient>
	<polygon style="fill:url(#SVGID_20_);" points="191.431,15.417 191.431,1.713 172.24,40.601 176.266,46.145 	"/>
	<linearGradient id="SVGID_21_" gradientUnits="userSpaceOnUse" x1="191.4175" y1="106.333" x2="229.8159" y2="106.333">
		<stop  offset="0" style="stop-color:#D39E2C"/>
		<stop  offset="0.2249" style="stop-color:#DCA72F"/>
		<stop  offset="0.6012" style="stop-color:#E6B331"/>
	</linearGradient>
	<polygon style="fill:url(#SVGID_21_);" points="191.431,92.817 191.417,99.677 191.431,99.669 229.816,119.85 221.736,108.748 	"/>
	<linearGradient id="SVGID_22_" gradientUnits="userSpaceOnUse" x1="129.3237" y1="61.9805" x2="166.894" y2="61.9805">
		<stop  offset="0" style="stop-color:#E3C030"/>
		<stop  offset="0.5758" style="stop-color:#FFCE05"/>
		<stop  offset="1" style="stop-color:#F7F3BD"/>
	</linearGradient>
	<polygon style="fill:url(#SVGID_22_);" points="142.399,51.113 129.324,46.837 160.377,77.108 160.374,77.124 166.894,74.99 	"/>
	<linearGradient id="SVGID_23_" gradientUnits="userSpaceOnUse" x1="129.3237" y1="45.8569" x2="176.2661" y2="45.8569">
		<stop  offset="0" style="stop-color:#D39E2C"/>
		<stop  offset="0.2249" style="stop-color:#DCA72F"/>
		<stop  offset="0.6012" style="stop-color:#E6B331"/>
	</linearGradient>
	<polygon style="fill:url(#SVGID_23_);" points="142.356,51.072 176.266,46.145 172.24,40.601 129.324,46.837 142.399,51.113 	"/>
	<linearGradient id="SVGID_24_" gradientUnits="userSpaceOnUse" x1="153.0454" y1="97.4199" x2="166.894" y2="97.4199">
		<stop  offset="0" style="stop-color:#D39E2C"/>
		<stop  offset="0.2249" style="stop-color:#DCA72F"/>
		<stop  offset="0.6012" style="stop-color:#E6B331"/>
	</linearGradient>
	<polygon style="fill:url(#SVGID_24_);" points="166.894,74.99 160.374,77.124 153.045,119.85 161.112,108.703 	"/>
	<linearGradient id="SVGID_25_" gradientUnits="userSpaceOnUse" x1="153.0454" y1="106.333" x2="191.4312" y2="106.333">
		<stop  offset="0" style="stop-color:#E3C030"/>
		<stop  offset="0.5758" style="stop-color:#FFCE05"/>
		<stop  offset="1" style="stop-color:#F7F3BD"/>
	</linearGradient>
	<polygon style="fill:url(#SVGID_25_);" points="161.101,108.764 161.112,108.703 153.045,119.85 191.417,99.677 191.431,92.817 	
		"/>
	<linearGradient id="SVGID_26_" gradientUnits="userSpaceOnUse" x1="215.9702" y1="97.4199" x2="229.8159" y2="97.4199">
		<stop  offset="0" style="stop-color:#E3C030"/>
		<stop  offset="0.5758" style="stop-color:#FFCE05"/>
		<stop  offset="1" style="stop-color:#F7F3BD"/>
	</linearGradient>
	<polygon style="fill:url(#SVGID_26_);" points="215.97,74.99 221.761,108.764 221.736,108.748 229.816,119.85 222.486,77.108 	"/>
	<linearGradient id="SVGID_27_" gradientUnits="userSpaceOnUse" x1="215.9702" y1="61.9727" x2="253.5405" y2="61.9727">
		<stop  offset="0" style="stop-color:#D39E2C"/>
		<stop  offset="0.2249" style="stop-color:#DCA72F"/>
		<stop  offset="0.6012" style="stop-color:#E6B331"/>
	</linearGradient>
	<polygon style="fill:url(#SVGID_27_);" points="253.541,46.837 240.505,51.072 240.505,51.072 215.97,74.99 222.486,77.108 	"/>
	<linearGradient id="SVGID_28_" gradientUnits="userSpaceOnUse" x1="206.5952" y1="45.834" x2="253.5405" y2="45.834">
		<stop  offset="0" style="stop-color:#E3C030"/>
		<stop  offset="0.5758" style="stop-color:#FFCE05"/>
		<stop  offset="1" style="stop-color:#F7F3BD"/>
	</linearGradient>
	<polygon style="fill:url(#SVGID_28_);" points="210.623,40.601 210.621,40.596 206.595,46.145 240.505,51.072 253.541,46.837 	"/>
</g>
<g>
	<linearGradient id="SVGID_29_" gradientUnits="userSpaceOnUse" x1="269.5063" y1="62.0908" x2="367.6558" y2="62.0908">
		<stop  offset="0" style="stop-color:#E3C030"/>
		<stop  offset="0.5758" style="stop-color:#FFCE05"/>
		<stop  offset="1" style="stop-color:#F7F3BD"/>
	</linearGradient>
	<path style="fill:url(#SVGID_29_);" d="M367.656,51.072l-33.91-4.928l-15.164-30.727l-15.165,30.727l-33.91,4.928l24.538,23.918
		l-5.793,33.773l30.33-15.946l30.33,15.946l-5.791-33.773L367.656,51.072z M347.501,106.822l-28.92-15.204l-28.921,15.204
		l5.524-32.203l-23.396-22.806l32.333-4.698l14.46-29.3l14.461,29.3l32.332,4.698l-23.396,22.806L347.501,106.822z"/>
	<linearGradient id="SVGID_30_" gradientUnits="userSpaceOnUse" x1="271.7886" y1="62.3184" x2="365.3745" y2="62.3184">
		<stop  offset="0" style="stop-color:#E3C030"/>
		<stop  offset="0.5758" style="stop-color:#FFCE05"/>
		<stop  offset="1" style="stop-color:#F7F3BD"/>
	</linearGradient>
	<polygon style="fill:url(#SVGID_30_);" points="365.375,51.813 333.042,47.115 318.582,17.815 304.122,47.115 271.789,51.813 
		295.185,74.619 289.661,106.822 318.582,91.618 347.501,106.822 341.978,74.619 	"/>
	<linearGradient id="SVGID_31_" gradientUnits="userSpaceOnUse" x1="269.5063" y1="62.0908" x2="367.6558" y2="62.0908">
		<stop  offset="0" style="stop-color:#E3C030"/>
		<stop  offset="0.5758" style="stop-color:#FFCE05"/>
		<stop  offset="1" style="stop-color:#F7F3BD"/>
	</linearGradient>
	<polygon style="fill:url(#SVGID_31_);" points="294.044,74.99 288.251,108.764 318.582,92.817 348.912,108.764 343.121,74.99 
		367.656,51.072 333.746,46.145 318.582,15.417 303.417,46.145 269.506,51.072 	"/>
	<radialGradient id="SVGID_32_" cx="318.5815" cy="62.0908" r="47.8886" gradientUnits="userSpaceOnUse">
		<stop  offset="0" style="stop-color:#D2D7DB"/>
		<stop  offset="0.7239" style="stop-color:#9F9F9F"/>
		<stop  offset="1" style="stop-color:#ACACAC"/>
	</radialGradient>
	<polygon style="fill:url(#SVGID_32_);" points="318.582,15.577 318.582,15.417 303.417,46.145 269.506,51.072 294.044,74.99 
		288.251,108.764 318.582,92.817 348.912,108.764 343.121,74.99 367.656,51.072 333.746,46.145 318.582,15.417 	"/>
	<linearGradient id="SVGID_33_" gradientUnits="userSpaceOnUse" x1="318.5815" y1="23.9287" x2="337.771" y2="23.9287">
		<stop  offset="0" style="stop-color:#D39E2C"/>
		<stop  offset="0.2249" style="stop-color:#DCA72F"/>
		<stop  offset="0.6012" style="stop-color:#E6B331"/>
	</linearGradient>
	<polygon style="fill:url(#SVGID_33_);" points="333.746,46.145 337.771,40.596 318.582,1.713 318.582,15.417 	"/>
	<linearGradient id="SVGID_34_" gradientUnits="userSpaceOnUse" x1="299.3901" y1="23.9287" x2="318.5815" y2="23.9287">
		<stop  offset="0" style="stop-color:#E3C030"/>
		<stop  offset="0.5758" style="stop-color:#FFCE05"/>
		<stop  offset="1" style="stop-color:#F7F3BD"/>
	</linearGradient>
	<polygon style="fill:url(#SVGID_34_);" points="318.582,15.417 318.582,1.713 299.39,40.601 303.417,46.145 	"/>
	<linearGradient id="SVGID_35_" gradientUnits="userSpaceOnUse" x1="318.5679" y1="106.333" x2="356.9663" y2="106.333">
		<stop  offset="0" style="stop-color:#D39E2C"/>
		<stop  offset="0.2249" style="stop-color:#DCA72F"/>
		<stop  offset="0.6012" style="stop-color:#E6B331"/>
	</linearGradient>
	<polygon style="fill:url(#SVGID_35_);" points="318.582,92.817 318.568,99.677 318.582,99.669 356.966,119.85 348.886,108.748 	"/>
	<linearGradient id="SVGID_36_" gradientUnits="userSpaceOnUse" x1="256.4741" y1="61.9805" x2="294.0444" y2="61.9805">
		<stop  offset="0" style="stop-color:#E3C030"/>
		<stop  offset="0.5758" style="stop-color:#FFCE05"/>
		<stop  offset="1" style="stop-color:#F7F3BD"/>
	</linearGradient>
	<polygon style="fill:url(#SVGID_36_);" points="269.548,51.113 256.474,46.837 287.527,77.108 287.524,77.124 294.044,74.99 	"/>
	<linearGradient id="SVGID_37_" gradientUnits="userSpaceOnUse" x1="256.4741" y1="45.8569" x2="303.4165" y2="45.8569">
		<stop  offset="0" style="stop-color:#D39E2C"/>
		<stop  offset="0.2249" style="stop-color:#DCA72F"/>
		<stop  offset="0.6012" style="stop-color:#E6B331"/>
	</linearGradient>
	<polygon style="fill:url(#SVGID_37_);" points="269.506,51.072 303.417,46.145 299.39,40.601 256.474,46.837 269.548,51.113 	"/>
	<linearGradient id="SVGID_38_" gradientUnits="userSpaceOnUse" x1="280.1958" y1="97.4199" x2="294.0444" y2="97.4199">
		<stop  offset="0" style="stop-color:#D39E2C"/>
		<stop  offset="0.2249" style="stop-color:#DCA72F"/>
		<stop  offset="0.6012" style="stop-color:#E6B331"/>
	</linearGradient>
	<polygon style="fill:url(#SVGID_38_);" points="294.044,74.99 287.524,77.124 280.196,119.85 288.261,108.703 	"/>
	<linearGradient id="SVGID_39_" gradientUnits="userSpaceOnUse" x1="280.1958" y1="106.333" x2="318.5815" y2="106.333">
		<stop  offset="0" style="stop-color:#E3C030"/>
		<stop  offset="0.5758" style="stop-color:#FFCE05"/>
		<stop  offset="1" style="stop-color:#F7F3BD"/>
	</linearGradient>
	<polygon style="fill:url(#SVGID_39_);" points="288.251,108.764 288.261,108.703 280.196,119.85 318.568,99.677 318.582,92.817 	
		"/>
	<linearGradient id="SVGID_40_" gradientUnits="userSpaceOnUse" x1="343.1206" y1="97.4199" x2="356.9663" y2="97.4199">
		<stop  offset="0" style="stop-color:#E3C030"/>
		<stop  offset="0.5758" style="stop-color:#FFCE05"/>
		<stop  offset="1" style="stop-color:#F7F3BD"/>
	</linearGradient>
	<polygon style="fill:url(#SVGID_40_);" points="343.121,74.99 348.912,108.764 348.886,108.748 356.966,119.85 349.636,77.108 	"/>
	<linearGradient id="SVGID_41_" gradientUnits="userSpaceOnUse" x1="343.1206" y1="61.9727" x2="380.6909" y2="61.9727">
		<stop  offset="0" style="stop-color:#D39E2C"/>
		<stop  offset="0.2249" style="stop-color:#DCA72F"/>
		<stop  offset="0.6012" style="stop-color:#E6B331"/>
	</linearGradient>
	<polygon style="fill:url(#SVGID_41_);" points="380.691,46.837 367.656,51.072 367.656,51.072 343.121,74.99 349.636,77.108 	"/>
	<linearGradient id="SVGID_42_" gradientUnits="userSpaceOnUse" x1="333.7456" y1="45.834" x2="380.6909" y2="45.834">
		<stop  offset="0" style="stop-color:#E3C030"/>
		<stop  offset="0.5758" style="stop-color:#FFCE05"/>
		<stop  offset="1" style="stop-color:#F7F3BD"/>
	</linearGradient>
	<polygon style="fill:url(#SVGID_42_);" points="337.773,40.601 337.771,40.596 333.746,46.145 367.656,51.072 380.691,46.837 	"/>
</g>
</svg>
